<svg width="62" height="61" viewBox="0 0 62 61" fill="none" xmlns="http://www.w3.org/2000/svg">
<path d="M27.3594 4.72516C28.2876 4.18926 29.4312 4.18926 30.3594 4.72516L49.01 15.4931C49.9382 16.029 50.51 17.0194 50.51 18.0912V39.6271C50.51 40.6989 49.9382 41.6893 49.01 42.2252L30.3594 52.9931C29.4312 53.529 28.2876 53.529 27.3594 52.9931L8.70874 42.2252C7.78054 41.6893 7.20874 40.6989 7.20874 39.6271V18.0912C7.20874 17.0194 7.78054 16.029 8.70874 15.4931L27.3594 4.72516Z" fill="#38394D"/>
<path d="M18.2362 10.5287L49.8223 28.7649L18.2362 47.0011L18.2362 10.5287Z" fill="#26273C"/>
<path d="M8.85938 15.3594C7.65937 16.1594 7.35938 17.3594 7.35938 17.8594V23.3591L34.8594 7.35913L30.8594 4.85945C29.2594 4.05945 27.8594 4.52611 27.3594 4.85945L8.85938 15.3594Z" fill="#FFAA23"/>
<path d="M27.3352 53.3754C28.628 54.0146 29.8172 53.6744 30.2502 53.4244L35.0131 50.6746L7.40671 34.8589L7.24192 39.5728C7.3491 41.3584 8.45324 42.3375 8.99192 42.6039L27.3352 53.3754Z" fill="#6C3CFF"/>
<path d="M50.7869 18.158C50.6941 16.7188 49.8048 15.859 49.3718 15.609L44.609 12.8591L44.7154 44.6748L48.8802 42.4606C50.373 41.4749 50.6688 40.0292 50.6302 39.4295L50.7869 18.158Z" fill="#3A89F7"/>
</svg>
