<svg width="41" height="48" viewBox="0 0 41 48" fill="none" xmlns="http://www.w3.org/2000/svg">
<path fill-rule="evenodd" clip-rule="evenodd" d="M40.8513 11.7927L20.4256 0L0 11.7927V35.3782L20.4256 47.171L40.8513 35.3782V11.7927ZM20.4256 38.9161C28.8925 38.9161 35.7562 32.0523 35.7562 23.5855C35.7562 15.1186 28.8925 8.25492 20.4256 8.25492C11.9588 8.25492 5.09507 15.1186 5.09507 23.5855C5.09507 32.0523 11.9588 38.9161 20.4256 38.9161Z" fill="#7144FB"/>
<path d="M20.4256 0L0 11.7927V35.3782L6.53067 30.0715C5.60959 28.1016 5.09507 25.9037 5.09507 23.5855C5.09507 15.1186 11.9588 8.25492 20.4256 8.25492V0Z" fill="#FEB929"/>
<path d="M40.8514 11.7927L20.4258 -7.62939e-05V8.25484C28.8926 8.25484 35.7563 15.1186 35.7563 23.5854C35.7563 26.3778 35.0098 28.9958 33.7054 31.2507L40.8514 35.3782V11.7927Z" fill="#4681EC"/>
<path d="M21.9252 13.6559V16.5649H20.1491V13.6559H21.9252ZM21.7075 29.6509V32.276H19.9429V29.6509H21.7075ZM23.1971 26.4578C23.1971 26.0856 23.1131 25.7624 22.945 25.4881C22.7846 25.2138 22.5134 24.969 22.1314 24.7535C21.7571 24.538 21.253 24.3323 20.6189 24.1364C19.6335 23.8295 18.7703 23.4932 18.0293 23.1275C17.2883 22.7553 16.7116 22.295 16.299 21.7464C15.8942 21.1979 15.6917 20.5058 15.6917 19.6699C15.6917 18.8667 15.9095 18.1713 16.3449 17.5836C16.7879 16.9894 17.4029 16.5323 18.1897 16.2123C18.9765 15.8858 19.8894 15.7226 20.9283 15.7226C21.738 15.7226 22.4637 15.8271 23.1054 16.036C23.7547 16.2384 24.3086 16.5356 24.7669 16.9274C25.2329 17.3191 25.5881 17.8024 25.8325 18.377C26.0846 18.9451 26.2107 19.5948 26.2107 20.3262H23.1856C23.1856 19.9213 23.1322 19.5622 23.0252 19.2487C22.9183 18.9353 22.7655 18.6708 22.5669 18.4554C22.3682 18.2333 22.1276 18.0668 21.845 17.9558C21.57 17.8448 21.2568 17.7893 20.9054 17.7893C20.4012 17.7893 19.9849 17.8709 19.6564 18.0342C19.3356 18.1974 19.0987 18.4194 18.946 18.7002C18.8008 18.981 18.7283 19.3043 18.7283 19.6699C18.7283 20.0225 18.8046 20.3327 18.9574 20.6004C19.1178 20.8616 19.3852 21.1 19.7595 21.3155C20.1415 21.531 20.6647 21.7497 21.3293 21.9717C22.3224 22.2852 23.1856 22.6313 23.919 23.01C24.6523 23.3822 25.2214 23.8393 25.6263 24.3813C26.0312 24.9233 26.2336 25.6089 26.2336 26.4382C26.2336 27.2871 26.0044 28.0054 25.5461 28.5931C25.0954 29.1808 24.4613 29.6281 23.644 29.935C22.8266 30.2419 21.8755 30.3954 20.7908 30.3954C20.0956 30.3954 19.4081 30.317 18.7283 30.1603C18.0484 30.0036 17.4296 29.7489 16.872 29.3963C16.322 29.0371 15.8827 28.5637 15.5542 27.976C15.2258 27.3818 15.0615 26.6537 15.0615 25.7917H18.098C18.098 26.288 18.1744 26.6994 18.3272 27.0259C18.48 27.3524 18.6862 27.6136 18.946 27.8095C19.2057 27.9989 19.496 28.1327 19.8168 28.2111C20.1377 28.2894 20.4623 28.3286 20.7908 28.3286C21.3255 28.3286 21.7686 28.2503 22.12 28.0935C22.479 27.9368 22.7464 27.7181 22.9221 27.4373C23.1054 27.15 23.1971 26.8235 23.1971 26.4578Z" fill="#9193A1"/>
</svg>
