<svg width="37" height="42" viewBox="0 0 37 42" fill="none" xmlns="http://www.w3.org/2000/svg">
<path d="M31.902 13.1475H21.553L30.8591 0.649136C31.0517 0.384489 30.8779 0 30.5631 0H12.5476C12.416 0 12.2892 0.0749004 12.2234 0.199734L0.0517766 22.545C-0.0938512 22.8097 0.08466 23.1442 0.375916 23.1442L11.5275 23.0551L9.22203 39.9621C9.13278 40.3516 9.57436 40.6263 9.84682 40.3466L32.1604 13.8316C32.4046 13.5869 32.2402 13.1475 31.902 13.1475Z" fill="#7E52FD"/>
<path d="M31.9029 13.1475H21.5539L30.86 0.649137C31.0526 0.384489 30.8788 0 30.5641 0L20.7504 3.07401C28.9522 8.45353 20.8229 14.4018 16.1394 6.91652L10.7599 18.4441C22.2364 16.6486 11.7077 21.0841 11.999 21.0841L10.759 23.0551L8.45303 40.7306C8.36377 41.1201 8.80535 41.3948 9.07782 41.1151L32.1613 13.8316C32.4056 13.5869 32.2412 13.1475 31.9029 13.1475Z" fill="#3A92E1"/>
<path d="M36.5137 13.1475H26.1647L35.4708 0.649136C35.6634 0.384489 35.4896 0 35.1748 0H17.1593C17.0277 0 16.9009 0.0749004 16.8351 0.199734L4.66347 22.545C4.51784 22.8097 4.69635 23.1442 4.98761 23.1442H13.1803L8.98063 41.0005C8.89137 41.3899 9.33296 41.6646 9.60542 41.3849L36.772 13.8316C37.0163 13.5869 36.8519 13.1475 36.5137 13.1475Z" fill="#FFB626"/>
</svg>
