<svg width="40" height="47" viewBox="0 0 40 47" fill="none" xmlns="http://www.w3.org/2000/svg">
<path d="M38.5348 9.25091L38.5366 9.25297C38.8152 9.56761 38.9585 9.97947 38.9352 10.3991L38.935 10.4022C38.0496 28.3672 31.6245 39.3831 20.424 45.7847C20.1994 45.9111 19.9556 45.9741 19.7177 45.9741C19.4796 45.9741 19.2362 45.911 19.0141 45.7852C7.81315 39.3837 1.38595 28.3676 0.502294 10.4022L0.502208 10.4006C0.480157 9.98024 0.623987 9.56803 0.902755 9.25264L0.903466 9.25183C1.03458 9.10284 1.19491 8.98237 1.37449 8.89789C1.5538 8.81354 1.74849 8.76685 1.94653 8.76071C4.1601 8.70245 6.60591 7.50156 8.86526 6.16484C9.77145 5.6287 10.6654 5.05934 11.5153 4.5181C11.7339 4.37887 11.9496 4.24149 12.1618 4.10702C13.2064 3.44523 14.1641 2.85565 15.0051 2.43424C16.0781 1.89732 16.9543 1.45934 17.6945 1.13171C18.4345 0.804124 19.0067 0.601606 19.4751 0.518719C19.6376 0.494658 19.8028 0.494135 19.9654 0.517165C20.4335 0.600209 21.0053 0.802651 21.7449 1.12992C22.4853 1.45754 23.3618 1.89546 24.4355 2.43231C25.2766 2.85419 26.2344 3.44414 27.279 4.10622C27.4901 4.24 27.7046 4.37665 27.9219 4.51514C28.7729 5.05726 29.6681 5.62759 30.5756 6.1646C32.8351 7.50165 35.2811 8.70262 37.4948 8.76073C37.6925 8.76652 37.8868 8.813 38.0656 8.89725C38.2447 8.9816 38.4044 9.10199 38.5348 9.25091Z" fill="#3A3B4F" stroke="#38394D"/>
<path d="M38.7368 8.44464C38.9781 8.55831 39.1934 8.72056 39.3691 8.92123C39.735 9.33447 39.9231 9.8754 39.8925 10.4265C39.0009 28.517 32.5141 39.7127 21.1288 46.2194C20.831 46.3872 20.5025 46.4738 20.1759 46.4738L19.8528 0.0249101C20.0681 -0.00768708 20.2871 -0.00829528 20.5025 0.0231052C21.5638 0.209009 22.9771 0.914723 25.1177 1.98502C28.5831 3.72314 33.8245 8.15235 37.9667 8.26064C38.2333 8.26834 38.4955 8.33098 38.7368 8.44464Z" fill="#4070DD"/>
<path d="M20.8058 46.6218C20.508 46.7896 20.1795 46.8763 19.8528 46.8763V20.2561L39.5694 10.8289C38.6778 28.9194 32.191 40.1151 20.8058 46.6218Z" fill="#6842DD"/>
<path d="M21.1283 46.2187C20.8305 46.3865 20.502 46.4731 20.1753 46.4731H19.8528V37.9019L37.6777 24.6315C34.7695 34.6857 29.1712 41.6222 21.1283 46.2187Z" fill="#F7AD25"/>
<path d="M30.4888 15.8088L20.8813 29.9862C20.5366 30.4952 19.9951 30.8327 19.459 30.8327C18.9212 30.8327 18.3238 30.5385 17.9465 30.1613L11.1746 23.3875C10.9535 23.1656 10.8293 22.8651 10.8293 22.5519C10.8293 22.2386 10.9535 21.9381 11.1746 21.7162L12.8477 20.0395C13.0701 19.8192 13.3704 19.6957 13.6834 19.6957C13.9964 19.6957 14.2967 19.8192 14.519 20.0395L18.923 24.4434L26.5739 13.1502C26.751 12.8918 27.023 12.7139 27.3308 12.6554C27.6385 12.5969 27.9569 12.6625 28.2164 12.8379L30.1747 14.1663C30.4334 14.3431 30.6117 14.615 30.6705 14.9228C30.7294 15.2305 30.664 15.5491 30.4888 15.8088Z" fill="white"/>
</svg>
