<svg width="45" height="46" viewBox="0 0 45 46" fill="none" xmlns="http://www.w3.org/2000/svg">
<path d="M26.7214 46H18.28C17.7511 46.0001 17.2381 45.8209 16.826 45.4921C16.4139 45.1632 16.1275 44.7046 16.0143 44.1922L15.0704 39.859C13.8113 39.3118 12.6174 38.6276 11.5107 37.8189L7.25058 39.1644C6.74634 39.3239 6.20225 39.3075 5.70869 39.118C5.21512 38.9284 4.80178 38.5772 4.53729 38.1225L0.307324 30.8752C0.0456075 30.4201 -0.0526344 29.8904 0.0286715 29.3727C0.109977 28.8551 0.366017 28.3801 0.754902 28.0255L4.05956 25.0355C3.90928 23.6811 3.90928 22.3143 4.05956 20.9599L0.754902 17.9768C0.365466 17.6221 0.109078 17.1467 0.0277592 16.6285C-0.0535599 16.1103 0.0450138 15.5801 0.307324 15.1248L4.52801 7.8729C4.7925 7.41823 5.20585 7.06696 5.69941 6.87743C6.19298 6.6879 6.73706 6.67152 7.24131 6.831L11.5014 8.1765C12.0673 7.7625 12.6563 7.3761 13.2639 7.0265C13.8506 6.6999 14.4536 6.4032 15.0704 6.1387L16.0166 1.8101C16.1293 1.29765 16.4151 0.838782 16.8268 0.509562C17.2384 0.180343 17.7512 0.000551922 18.28 0H26.7214C27.2502 0.000551922 27.763 0.180343 28.1746 0.509562C28.5863 0.838782 28.8722 1.29765 28.9848 1.8101L29.9403 6.141C31.1978 6.69132 32.3913 7.37535 33.5 8.1811L37.7624 6.8356C38.2664 6.67671 38.8099 6.69339 39.303 6.88289C39.7961 7.07239 40.209 7.42332 40.4734 7.8775L44.6941 15.1294C45.2321 16.0655 45.0466 17.25 44.2465 17.9791L40.9419 20.9691C41.0921 22.3235 41.0921 23.6903 40.9419 25.0447L44.2465 28.0347C45.0466 28.7661 45.2321 29.9483 44.6941 30.8844L40.4734 38.1363C40.2089 38.591 39.7956 38.9422 39.302 39.1318C38.8084 39.3213 38.2644 39.3377 37.7601 39.1782L33.5 37.8327C32.3941 38.6408 31.201 39.3243 29.9426 39.8705L28.9848 44.1922C28.8717 44.7042 28.5856 45.1626 28.174 45.4913C27.7624 45.8201 27.2499 45.9996 26.7214 46ZM22.4914 13.8C20.0312 13.8 17.6718 14.7693 15.9321 16.4946C14.1925 18.22 13.2152 20.56 13.2152 23C13.2152 25.44 14.1925 27.78 15.9321 29.5054C17.6718 31.2307 20.0312 32.2 22.4914 32.2C24.9516 32.2 27.3111 31.2307 29.0507 29.5054C30.7904 27.78 31.7677 25.44 31.7677 23C31.7677 20.56 30.7904 18.22 29.0507 16.4946C27.3111 14.7693 24.9516 13.8 22.4914 13.8Z" fill="#3A3B4F"/>
<path d="M18.2801 46.0003H26.7215C27.25 45.9999 27.7625 45.8204 28.1741 45.4917C28.5858 45.1629 28.8718 44.7045 28.9849 44.1925L29.9427 39.8708C31.2011 39.3246 32.3942 38.6411 33.5001 37.833L37.7602 39.1785C38.2645 39.338 38.8086 39.3216 39.3021 39.1321C39.7957 38.9426 40.209 38.5913 40.4735 38.1366L44.6942 30.8847L29.0508 29.5057C27.3112 31.231 24.9518 32.2003 22.4915 32.2003C20.0313 32.2003 17.6719 31.231 15.9323 29.5057L0.0287798 29.373C-0.0525261 29.8907 0.0457158 30.4204 0.307432 30.8755L4.5374 38.1228C4.80189 38.5775 5.21523 38.9288 5.7088 39.1183C6.20236 39.3078 6.74644 39.3242 7.25069 39.1647L11.5108 37.8192C12.6175 38.6279 13.8114 39.3122 15.0706 39.8593L16.0144 44.1925C16.1276 44.7049 16.414 45.1636 16.8261 45.4924C17.2382 45.8212 17.7512 46.0004 18.2801 46.0003Z" fill="#4A4B5D"/>
<path d="M16.0165 1.8101L15.0703 6.1387L22.5 13.5684L29.9401 6.141L28.9847 1.8101C28.872 1.29765 28.5862 0.838782 28.1745 0.509562C27.7628 0.180343 27.2501 0.000551922 26.7213 0H18.2799C17.7511 0.000551922 17.2383 0.180343 16.8266 0.509562C16.415 0.838782 16.1291 1.29765 16.0165 1.8101Z" fill="#FFB828"/>
<path d="M7.25069 39.1641L11.5108 37.8186L14.5 28.0252L4.05967 25.0352L0.75501 28.0252C0.366125 28.3797 0.110086 28.8547 0.0287798 29.3724C-0.0525261 29.8901 0.0457158 30.4198 0.307432 30.8749L4.5374 38.1222C4.80189 38.5768 5.21523 38.9281 5.7088 39.1176C6.20236 39.3072 6.74644 39.3235 7.25069 39.1641Z" fill="#7648FE"/>
<path d="M44.2465 28.0349L40.9419 25.0449L30.5 28.0349L33.5 37.8329L37.7601 39.1784C38.2644 39.3379 38.8084 39.3215 39.302 39.132C39.7956 38.9425 40.2089 38.5912 40.4734 38.1365L44.6941 30.8846C45.2321 29.9485 45.0466 28.7663 44.2465 28.0349Z" fill="#4C82DD"/>
</svg>
