<svg width="80" height="80" viewBox="0 0 80 80" fill="none" xmlns="http://www.w3.org/2000/svg">
<path d="M63.6142 35.5035C65.9615 48.6808 57.182 61.2661 44.0046 63.6134C30.8272 65.9607 18.242 57.1811 15.8947 44.0037C13.5474 30.8264 22.3269 18.2411 35.5043 15.8938C48.6817 13.5465 61.2669 22.3261 63.6142 35.5035ZM25.7059 42.2561C27.088 50.0148 34.4981 55.1842 42.2569 53.8021C50.0157 52.42 55.185 45.0099 53.803 37.2511C52.4209 29.4924 45.0108 24.323 37.252 25.7051C29.4932 27.0872 24.3239 34.4973 25.7059 42.2561Z" fill="#3A3B4F"/>
<path d="M53.6196 19.8765C56.0969 21.6047 58.2292 23.7806 59.9069 26.2923L51.6197 31.8275C50.6319 30.3486 49.3764 29.0674 47.9178 28.0499L53.6196 19.8765Z" fill="#3A89F7"/>
<path d="M59.6307 53.6203C57.9026 56.0975 55.7266 58.2299 53.2149 59.9075L47.6797 51.6203C49.1586 50.6326 50.4398 49.377 51.4573 47.9184L59.6307 53.6203Z" fill="#6C3CFF"/>
<path d="M25.8882 59.6303C23.4109 57.9022 21.2786 55.7262 19.6009 53.2145L27.8881 47.6793C28.8759 49.1582 30.1314 50.4394 31.59 51.4569L25.8882 59.6303Z" fill="#606271"/>
<path d="M19.878 25.8866C21.6062 23.4094 23.7821 21.277 26.2939 19.5994L31.829 27.8865C30.3502 28.8743 29.069 30.1298 28.0515 31.5884L19.878 25.8866Z" fill="#FFAA23"/>
</svg>
