<svg width="26" height="30" viewBox="0 0 26 30" fill="none" xmlns="http://www.w3.org/2000/svg">
<path fill-rule="evenodd" clip-rule="evenodd" d="M25.9808 7.5L12.9904 0L0 7.5V22.5L12.9904 30L25.9808 22.5V7.5ZM12.9904 24.75C18.3752 24.75 22.7404 20.3848 22.7404 15C22.7404 9.61522 18.3752 5.25 12.9904 5.25C7.60561 5.25 3.24038 9.61522 3.24038 15C3.24038 20.3848 7.60561 24.75 12.9904 24.75Z" fill="#747586"/>
<path d="M12.9904 0L0 7.5V22.5L4.15341 19.125C3.56761 17.8722 3.24038 16.4743 3.24038 15C3.24038 9.61522 7.60561 5.25 12.9904 5.25V0Z" fill="#5C5F7B"/>
<path d="M25.9807 7.5L12.9904 0V5.25C18.3751 5.25 22.7404 9.61522 22.7404 15C22.7404 16.7759 22.2656 18.4409 21.436 19.875L25.9807 22.5V7.5Z" fill="#9396A3"/>
<path d="M13.9445 8.6842V10.5343H12.815V8.6842H13.9445ZM13.8061 18.8568V20.5263H12.6838V18.8568H13.8061ZM14.7534 16.826C14.7534 16.5893 14.7 16.3838 14.5931 16.2093C14.4911 16.0349 14.3186 15.8792 14.0757 15.7421C13.8376 15.6051 13.517 15.4743 13.1138 15.3497C12.487 15.1545 11.9381 14.9406 11.4668 14.708C10.9955 14.4713 10.6287 14.1785 10.3664 13.8297C10.1089 13.4808 9.98016 13.0406 9.98016 12.5091C9.98016 11.9982 10.1186 11.556 10.3955 11.1822C10.6773 10.8043 11.0684 10.5136 11.5688 10.3101C12.0692 10.1024 12.6498 9.99861 13.3105 9.99861C13.8255 9.99861 14.287 10.0651 14.6951 10.198C15.1081 10.3267 15.4603 10.5157 15.7518 10.7648C16.0482 11.014 16.2741 11.3213 16.4295 11.6868C16.5899 12.0481 16.67 12.4613 16.67 12.9264H14.7461C14.7461 12.6689 14.7121 12.4405 14.6441 12.2412C14.5761 12.0419 14.4789 11.8737 14.3526 11.7366C14.2263 11.5954 14.0733 11.4895 13.8935 11.4189C13.7186 11.3483 13.5194 11.313 13.2959 11.313C12.9753 11.313 12.7105 11.3649 12.5016 11.4687C12.2976 11.5726 12.147 11.7138 12.0498 11.8923C11.9575 12.0709 11.9113 12.2765 11.9113 12.5091C11.9113 12.7333 11.9599 12.9306 12.0571 13.1009C12.1591 13.267 12.3291 13.4186 12.5672 13.5556C12.8101 13.6926 13.1429 13.8318 13.5656 13.973C14.1972 14.1723 14.7461 14.3924 15.2125 14.6333C15.6789 14.87 16.0409 15.1607 16.2984 15.5054C16.5559 15.8501 16.6846 16.2862 16.6846 16.8136C16.6846 17.3535 16.5389 17.8103 16.2474 18.1841C15.9607 18.5578 15.5575 18.8423 15.0376 19.0375C14.5178 19.2327 13.9129 19.3303 13.2231 19.3303C12.781 19.3303 12.3437 19.2804 11.9113 19.1808C11.4789 19.0811 11.0854 18.9191 10.7308 18.6949C10.381 18.4665 10.1016 18.1654 9.89271 17.7916C9.6838 17.4137 9.57935 16.9506 9.57935 16.4024H11.5105C11.5105 16.7181 11.5591 16.9797 11.6563 17.1873C11.7534 17.395 11.8846 17.5611 12.0498 17.6857C12.215 17.8061 12.3996 17.8913 12.6036 17.9411C12.8077 17.9909 13.0142 18.0159 13.2231 18.0159C13.5632 18.0159 13.8449 17.966 14.0684 17.8664C14.2968 17.7667 14.4668 17.6276 14.5785 17.449C14.6951 17.2663 14.7534 17.0586 14.7534 16.826Z" fill="#9193A1"/>
</svg>
