<svg width="29" height="30" viewBox="0 0 29 30" fill="none" xmlns="http://www.w3.org/2000/svg">
<path d="M28.5749 8.12467L16.1837 0V4.5429L24.1329 9.70777L23.1972 12.6667H16.1837V16.4312H23.1972L24.1329 19.3901L16.1837 24.5549V29.0978L28.5749 20.9996L26.5489 14.5617L28.5749 8.12376V8.12467Z" fill="#76798C"/>
<path d="M5.40311 16.4312H12.3911V12.6667H5.37674L4.46743 9.70777L12.3911 4.5429V0L0 8.12467L2.02594 14.5626L0 20.9996L12.4175 29.0978V24.5559L4.46834 19.3901L5.40311 16.4312Z" fill="#76798C"/>
<mask id="mask0_113_35" style="mask-type:alpha" maskUnits="userSpaceOnUse" x="0" y="0" width="29" height="30">
<path d="M28.5747 8.12467L16.1836 0V4.5429L24.1328 9.70777L23.1971 12.6667H16.1836V16.4312H23.1971L24.1328 19.3901L16.1836 24.5549V29.0978L28.5747 20.9996L26.5488 14.5617L28.5747 8.12376V8.12467Z" fill="#76798C"/>
<path d="M5.40311 16.4312H12.3911V12.6667H5.37674L4.46743 9.70777L12.3911 4.5429V0L0 8.12467L2.02594 14.5626L0 20.9996L12.4175 29.0978V24.5559L4.46834 19.3901L5.40311 16.4312Z" fill="#76798C"/>
</mask>
<g mask="url(#mask0_113_35)">
</g>
</svg>
