<svg width="26" height="26" viewBox="0 0 26 26" fill="none" xmlns="http://www.w3.org/2000/svg">
<path d="M13 0C9.13555 0 5.67227 1.69609 3.2957 4.37734L0 1.08164V9.75H8.66836L5.61133 6.69297C7.39375 4.5957 10.0293 3.25 13 3.25C18.3828 3.25 22.75 7.61211 22.75 13C22.75 18.3879 18.3828 22.75 13 22.75C10.3086 22.75 7.87109 21.6582 6.10391 19.8961L3.80859 22.1914C6.16484 24.5426 9.41484 26 13 26C20.1805 26 26 20.1805 26 13C26 5.81953 20.1805 0 13 0ZM11.9184 5.41836V14.0867H18.4184V11.9184H14.0867V5.41836H11.9184Z" fill="white"/>
</svg>
